<?xml version="1.0" standalone="no"?>
<!DOCTYPE svg PUBLIC "-//W3C//DTD SVG 20010904//EN"
 "http://www.w3.org/TR/2001/REC-SVG-20010904/DTD/svg10.dtd">
<svg version="1.0" xmlns="http://www.w3.org/2000/svg"
 width="192.000000pt" height="192.000000pt" viewBox="0 0 192.000000 192.000000"
 preserveAspectRatio="xMidYMid meet">
<metadata>
Created by potrace 1.11, written by Peter Selinger 2001-2013
</metadata>
<g transform="translate(0.000000,192.000000) scale(0.100000,-0.100000)"
fill="#000000" stroke="none">
<path d="M970 1761 c0 -6 -7 -11 -15 -11 -8 0 -15 -6 -15 -13 0 -18 -36 -82
-46 -82 -32 -2 -52 -27 -58 -75 -9 -70 -23 -101 -46 -107 -11 -3 -22 -14 -26
-25 -3 -10 -10 -18 -16 -16 -12 4 -72 -52 -64 -60 3 -2 -1 -14 -9 -25 -13 -19
-12 -22 13 -39 30 -20 26 -23 -13 -8 -14 5 -24 7 -22 2 3 -4 -34 -8 -81 -9
-55 -2 -89 -7 -94 -15 -4 -7 -5 -63 -2 -124 5 -75 3 -117 -5 -132 -7 -13 -8
-23 -1 -27 5 -3 10 -11 10 -16 0 -6 -6 -7 -12 -2 -7 4 -22 9 -32 10 -11 2 -27
10 -35 17 -20 17 -41 10 -41 -14 0 -26 -12 -31 -34 -15 -12 9 -17 22 -14 38 4
20 -1 28 -30 41 -33 16 -48 30 -91 86 -11 14 -22 23 -25 20 -14 -15 -28 -164
-23 -250 13 -210 96 -394 244 -537 284 -275 733 -313 1047 -89 83 59 185 169
235 253 49 84 90 204 97 286 5 57 3 66 -25 110 -17 26 -31 50 -31 53 0 3 -13
25 -30 49 -16 24 -30 55 -30 70 0 17 -8 29 -24 36 -20 9 -28 7 -50 -12 -14
-12 -26 -30 -26 -38 0 -9 -5 -23 -10 -31 -7 -12 -11 -10 -19 10 -7 18 -10 20
-10 8 -1 -10 -6 -18 -12 -18 -6 0 -8 -7 -5 -16 5 -13 1 -15 -19 -12 -20 4 -23
3 -14 -8 6 -8 18 -14 26 -14 8 0 13 -7 11 -17 -5 -24 -25 -27 -31 -3 -6 24
-29 26 -51 5 -19 -20 -23 -19 -29 6 -4 14 -11 20 -21 16 -17 -7 -31 22 -18 35
11 11 -6 88 -19 88 -5 0 -9 -6 -9 -12 0 -21 -26 25 -46 81 -11 31 -26 56 -36
59 -34 9 -61 144 -74 365 -3 64 -11 120 -16 123 -20 13 -178 17 -178 5z m-345
-744 c4 -106 9 -195 11 -198 2 -4 47 5 99 19 52 14 97 23 100 20 12 -12 18
-108 6 -108 -6 0 -11 6 -11 13 0 10 -23 12 -96 11 -78 -1 -97 -5 -108 -19 -10
-14 -22 -17 -54 -13 -22 3 -44 2 -50 -4 -10 -10 -22 159 -22 333 l0 116 53 41
52 41 6 -30 c4 -16 10 -116 14 -222z m-107 208 c-6 -14 -15 -25 -20 -25 -13 0
-9 38 5 43 24 10 26 7 15 -18z m578 -25 c26 -27 50 -50 53 -50 4 0 24 22 46
50 22 27 43 46 47 42 4 -4 18 -37 32 -72 13 -36 36 -96 51 -135 14 -38 30 -74
34 -80 4 -5 20 -48 35 -94 25 -75 26 -85 12 -93 -24 -13 -20 -31 4 -18 11 6
20 8 20 6 0 -3 -13 -12 -30 -21 -16 -9 -30 -11 -30 -6 0 13 -48 18 -81 10
l-26 -7 -29 125 -28 124 -24 -31 c-29 -38 -42 -38 -67 0 -23 35 -35 38 -35 10
0 -16 -10 -66 -45 -218 -5 -20 -8 -21 -20 -9 -9 9 -29 13 -55 11 -23 -2 -51 1
-63 7 -17 10 -19 9 -13 -7 6 -15 5 -16 -5 -7 -10 10 -7 34 16 115 16 57 32
108 35 113 4 6 15 35 25 65 9 30 25 78 35 105 10 28 24 65 30 83 7 17 16 32
21 32 4 0 29 -22 55 -50z m-361 -110 c3 -6 -1 -7 -9 -4 -18 7 -21 14 -7 14 6
0 13 -4 16 -10z m920 -40 c3 -5 -1 -10 -10 -10 -9 0 -13 5 -10 10 3 6 8 10 10
10 2 0 7 -4 10 -10z m-15 -35 c0 -8 -7 -15 -15 -15 -8 0 -15 5 -15 11 0 5 5 7
10 4 6 -3 10 -1 10 4 0 6 2 11 5 11 3 0 5 -7 5 -15z m-1310 -55 c0 -5 -4 -10
-10 -10 -5 0 -10 5 -10 10 0 6 5 10 10 10 6 0 10 -4 10 -10z m1380 -8 c0 -4
-9 -8 -20 -9 -11 -1 -20 3 -20 8 0 6 5 7 10 4 6 -3 10 -1 10 5 0 6 5 8 10 5 6
-3 10 -9 10 -13z m-120 -112 c0 -5 -4 -10 -10 -10 -5 0 -10 5 -10 10 0 6 5 10
10 10 6 0 10 -4 10 -10z m40 -15 c11 -13 10 -14 -4 -9 -9 3 -16 10 -16 15 0
13 6 11 20 -6z m-46 -20 c-6 -16 -24 -21 -24 -7 0 11 11 22 21 22 5 0 6 -7 3
-15z"/>
<path d="M510 1140 c0 -32 9 -36 41 -19 20 10 20 11 3 30 -26 28 -44 24 -44
-11z"/>
<path d="M520 963 c0 -13 5 -23 10 -23 13 0 13 11 0 30 -8 12 -10 11 -10 -7z"/>
<path d="M1044 1218 c-4 -7 -14 -23 -22 -35 -21 -33 -1 -27 26 7 12 16 18 31
13 34 -5 4 -13 1 -17 -6z"/>
<path d="M1250 1131 c-15 -6 -24 -41 -10 -41 4 0 15 9 24 19 18 20 11 33 -14
22z"/>
<path d="M1010 949 c-43 -19 -43 -19 -10 -14 19 3 41 12 50 20 17 18 17 18
-40 -6z"/>
<path d="M378 1043 c7 -3 16 -2 19 1 4 3 -2 6 -13 5 -11 0 -14 -3 -6 -6z"/>
</g>
</svg>
